<?xml version="1.0" encoding="UTF-8"?>
<!DOCTYPE svg PUBLIC "-//W3C//DTD SVG 1.1//EN" "http://www.w3.org/Graphics/SVG/1.1/DTD/svg11.dtd">
<svg version="1.1" xmlns="http://www.w3.org/2000/svg" xmlns:xlink="http://www.w3.org/1999/xlink" x="0" y="0" width="410" height="80" viewBox="0, 0, 410, 80">
  <defs>
    <radialGradient id="Gradient_1" gradientUnits="userSpaceOnUse" cx="205.13" cy="41.087" r="199.699" gradientTransform="matrix(1, -0, 0, 1, 0, 0)">
      <stop offset="0" stop-color="#1559eD"/>
      <stop offset="1" stop-color="#9b00e9"/>
    </radialGradient>
  </defs>
  
  <g id="Layer_3" transform="translate(-5,0), scale(0.9)">
    <path d="M12.357,26.867 L12.368,49.39 L14.243,49.389 Q18.321,49.388 20.054,46.82 Q21.787,44.253 21.784,38.089 Q21.782,31.972 20.046,29.418 Q18.311,26.864 14.232,26.866 z M5.441,20.636 L12.847,20.632 Q21.425,20.628 25.2,24.716 Q28.976,28.805 28.98,38.086 Q28.984,47.39 25.212,51.505 Q21.441,55.62 12.863,55.624 L5.456,55.628 z M56.971,54.315 Q54.581,55.301 52.097,55.794 Q49.613,56.287 46.847,56.289 Q40.261,56.292 36.779,52.766 Q33.297,49.24 33.294,42.607 Q33.291,36.185 36.641,32.457 Q39.991,28.729 45.78,28.727 Q51.616,28.724 54.84,32.179 Q58.065,35.635 58.067,41.916 L58.069,44.705 L40.28,44.713 Q40.304,47.807 42.11,49.33 Q43.915,50.852 47.501,50.851 Q49.868,50.85 52.165,50.169 Q54.461,49.488 56.969,48.011 z M51.152,39.552 Q51.104,36.834 49.756,35.44 Q48.408,34.046 45.783,34.047 Q43.415,34.048 42.01,35.49 Q40.604,36.932 40.348,39.581 z M83.257,30.163 L83.26,36.163 Q81.361,34.945 79.31,34.325 Q77.259,33.704 75.197,33.705 Q72.9,33.706 71.728,34.375 Q70.556,35.043 70.557,36.356 Q70.558,38.231 75.574,39.401 L75.832,39.471 L77.801,39.939 Q81.551,40.828 83.298,42.807 Q85.045,44.787 85.047,48.162 Q85.049,52.217 82.389,54.245 Q79.73,56.274 74.386,56.276 Q72.019,56.277 69.535,55.868 Q67.05,55.459 64.495,54.64 L64.492,48.64 Q66.766,49.928 69.122,50.607 Q71.478,51.285 73.681,51.284 Q76.095,51.283 77.337,50.579 Q78.579,49.876 78.578,48.54 Q78.578,47.227 77.698,46.525 Q76.819,45.822 73.514,45.026 L71.616,44.605 Q67.678,43.717 65.872,41.819 Q64.067,39.921 64.065,36.734 Q64.063,32.937 66.805,30.826 Q69.546,28.716 74.515,28.714 Q76.741,28.713 78.956,29.075 Q81.171,29.437 83.257,30.163 z M94.109,29.337 L107.702,29.331 L107.712,50.308 L116.243,50.304 L116.246,55.577 L92.292,55.588 L92.29,50.315 L100.845,50.311 L100.838,34.608 L94.111,34.611 z M100.829,16.561 L107.697,16.558 L107.7,24.573 L100.833,24.577 z M136.653,42.021 Q136.652,38.506 135.315,36.385 Q133.978,34.265 131.798,34.266 Q129.642,34.267 128.319,36.377 Q126.996,38.487 126.997,42.026 Q126.999,45.588 128.324,47.697 Q129.649,49.806 131.805,49.805 Q133.985,49.804 135.32,47.682 Q136.655,45.56 136.653,42.021 z M143.526,53.596 Q143.529,59.901 140.682,62.703 Q137.836,65.505 131.438,65.508 Q129.281,65.509 127.172,65.193 Q125.062,64.878 122.882,64.223 L122.879,57.918 Q124.825,58.995 126.841,59.51 Q128.857,60.025 130.99,60.024 Q133.896,60.022 135.278,58.651 Q136.66,57.279 136.659,54.373 L136.658,51.537 Q135.651,53.412 133.987,54.327 Q132.323,55.242 129.933,55.243 Q125.433,55.245 122.783,51.731 Q120.133,48.216 120.13,42.193 Q120.127,35.958 122.774,32.301 Q125.421,28.643 129.874,28.641 Q132.124,28.64 133.882,29.694 Q135.64,30.748 136.649,32.67 L136.648,29.318 L143.515,29.315 z M171.832,38.513 L171.839,55.552 L165.019,55.555 L165.012,39.571 Q165.01,36.711 164.201,35.481 Q163.392,34.251 161.564,34.252 Q159.712,34.253 158.647,35.917 Q157.581,37.582 157.582,40.535 L157.589,55.559 L150.769,55.562 L150.757,29.312 L157.577,29.309 L157.579,33.246 Q158.305,31.066 160.062,29.87 Q161.819,28.674 164.304,28.673 Q168.03,28.671 169.93,31.143 Q171.829,33.615 171.832,38.513 z M206.534,20.544 L214.784,20.54 L218.963,35.89 L223.105,20.537 L231.401,20.533 L231.417,55.525 L225.464,55.528 L225.452,27.496 L221.755,42.803 L216.248,42.805 L212.491,27.502 L212.503,55.534 L206.55,55.536 z M249.834,43.188 Q245.99,43.19 244.467,44.175 Q242.944,45.16 242.945,47.551 Q242.946,49.332 244.001,50.386 Q245.056,51.441 246.861,51.44 Q249.58,51.439 251.079,49.387 Q252.578,47.336 252.576,43.656 L252.576,43.187 z M259.395,40.536 L259.402,55.512 L252.581,55.515 L252.58,52.586 Q251.339,54.321 249.394,55.259 Q247.449,56.197 245.105,56.198 Q240.629,56.2 238.131,53.834 Q235.634,51.468 235.632,47.226 Q235.63,42.632 238.606,40.44 Q241.581,38.247 247.816,38.244 L252.574,38.242 L252.573,37.093 Q252.572,35.429 251.365,34.575 Q250.157,33.72 247.814,33.721 Q245.353,33.722 243.044,34.344 Q240.736,34.966 238.229,36.327 L238.226,30.467 Q240.499,29.529 242.843,29.082 Q245.186,28.636 247.811,28.635 Q254.21,28.632 256.801,31.232 Q259.392,33.833 259.395,40.536 z M287.198,54.164 Q285.464,55.172 283.472,55.677 Q281.48,56.182 279.183,56.183 Q273.113,56.186 269.689,52.531 Q266.266,48.876 266.263,42.408 Q266.26,35.915 269.704,32.246 Q273.147,28.576 279.218,28.574 Q281.327,28.573 283.284,29.064 Q285.242,29.555 287.187,30.586 L287.19,36.867 Q285.69,35.578 283.896,34.888 Q282.103,34.197 280.181,34.198 Q276.83,34.2 275.026,36.333 Q273.222,38.467 273.224,42.404 Q273.226,46.342 275.031,48.45 Q276.837,50.559 280.189,50.557 Q282.181,50.557 283.915,49.888 Q285.649,49.219 287.195,47.859 z M316.324,38.447 L316.331,55.486 L309.511,55.489 L309.504,39.505 Q309.503,36.669 308.693,35.451 Q307.884,34.232 306.056,34.233 Q304.181,34.234 303.127,35.887 Q302.073,37.54 302.075,40.469 L302.081,55.493 L295.261,55.496 L295.245,19.027 L302.065,19.024 L302.071,33.18 Q302.797,31 304.554,29.804 Q306.311,28.608 308.796,28.607 Q312.522,28.605 314.422,31.077 Q316.321,33.549 316.324,38.447 z M325.296,29.232 L338.89,29.226 L338.899,50.203 L347.431,50.199 L347.433,55.472 L323.48,55.483 L323.477,50.21 L332.032,50.206 L332.025,34.503 L325.298,34.506 z M332.017,16.456 L338.884,16.453 L338.888,24.468 L332.02,24.471 z M374.121,38.421 L374.128,55.46 L367.308,55.463 L367.301,39.479 Q367.299,36.619 366.49,35.389 Q365.681,34.159 363.853,34.16 Q362.001,34.161 360.936,35.825 Q359.87,37.49 359.871,40.443 L359.878,55.467 L353.058,55.47 L353.046,29.22 L359.866,29.217 L359.868,33.154 Q360.594,30.974 362.351,29.778 Q364.108,28.582 366.593,28.581 Q370.319,28.579 372.219,31.051 Q374.118,33.523 374.121,38.421 z M403.753,54.158 Q401.363,55.143 398.878,55.636 Q396.394,56.13 393.629,56.131 Q387.043,56.134 383.561,52.608 Q380.079,49.082 380.076,42.45 Q380.073,36.028 383.422,32.3 Q386.772,28.572 392.561,28.569 Q398.397,28.566 401.622,32.022 Q404.846,35.477 404.849,41.759 L404.85,44.548 L387.061,44.556 Q387.086,47.65 388.891,49.172 Q390.696,50.695 394.282,50.693 Q396.65,50.692 398.946,50.011 Q401.243,49.331 403.75,47.853 z M397.934,39.395 Q397.885,36.676 396.537,35.282 Q395.189,33.888 392.564,33.889 Q390.197,33.89 388.791,35.332 Q387.385,36.774 387.129,39.423 z" fill="url(#Gradient_1)"/>
  </g>
</svg>
