<?xml version="1.0" encoding="UTF-8"?>
<!DOCTYPE svg PUBLIC "-//W3C//DTD SVG 1.1//EN" "http://www.w3.org/Graphics/SVG/1.1/DTD/svg11.dtd">
<svg version="1.1" xmlns="http://www.w3.org/2000/svg" xmlns:xlink="http://www.w3.org/1999/xlink" x="0" y="0" width="410" height="80" viewBox="0, 0, 410, 80">
  <defs>
   
    <linearGradient id="Gradient_16" gradientUnits="userSpaceOnUse" x1="175.989" y1="22.633" x2="183.889" y2="56.225" gradientTransform="matrix(1, -0, 0, 1, 0, 0)">
      <stop offset="0" stop-color="#0193FF"/>
      <stop offset="1" stop-color="#000641" stop-opacity="0.959"/>
    </linearGradient>
  </defs>

  <g id="Layer_5" transform="translate(-5,0), scale(1.1)">
    <path d="M3.924,55.411 L3.91,23.395 L12.79,23.391 Q17.302,23.389 20.83,24.395 Q24.359,25.402 26.784,27.417 Q29.208,29.431 30.482,32.431 Q31.755,35.43 31.757,39.366 Q31.759,43.302 30.488,46.303 Q29.218,49.303 26.794,51.321 Q24.371,53.338 20.844,54.371 Q17.316,55.405 12.804,55.407 z M9.97,50.416 L9.96,28.384 L12.792,28.383 Q18.888,28.38 22.273,31.139 Q25.659,33.897 25.661,39.369 Q25.663,44.841 22.281,47.627 Q18.898,50.412 12.802,50.415 z M8.723,51.569 L12.803,51.567 Q19.811,51.564 23.385,48.37 Q26.96,45.176 26.957,39.368 Q26.954,33.56 23.377,30.394 Q19.799,27.228 12.791,27.231 L8.711,27.233 z M14.144,46.286 Q17.744,46.285 19.711,44.58 Q21.679,42.875 21.677,39.371 Q21.675,35.867 19.707,34.188 Q17.738,32.509 14.138,32.51 z M34.39,23.381 L53.254,23.373 L53.258,31.773 L44.618,31.776 L44.619,35.328 L53.115,35.325 L53.119,43.293 L44.623,43.296 L44.624,46.992 L53.6,46.988 L53.604,55.388 L34.404,55.397 z M50.051,51.55 L50.05,50.398 L40.45,50.402 L40.445,39.89 L49.565,39.886 L49.565,38.734 L40.445,38.738 L40.44,28.37 L50.04,28.366 L50.039,27.214 L39.191,27.219 L39.203,51.555 z M59.65,51.21 Q60.322,51.353 61.09,51.449 Q61.763,51.545 62.507,51.616 Q63.251,51.688 64.019,51.688 Q65.363,51.687 66.634,51.374 Q67.906,51.062 68.914,50.341 Q69.922,49.621 70.521,48.493 Q71.121,47.364 71.12,45.732 Q71.119,44.34 70.423,43.093 Q69.726,41.845 68.646,40.694 Q67.565,39.542 66.341,38.487 Q65.116,37.431 64.036,36.352 Q62.955,35.272 62.259,34.192 Q61.562,33.113 61.562,31.961 Q61.561,30.233 62.664,29.296 Q63.768,28.36 66.216,28.359 Q66.6,28.358 67.008,28.382 Q67.416,28.406 67.8,28.454 Q68.184,28.502 68.568,28.502 L68.567,27.254 Q68.231,27.254 67.847,27.206 Q67.511,27.158 67.103,27.134 Q66.695,27.11 66.263,27.111 Q63.671,27.112 61.992,28.289 Q60.313,29.465 60.314,31.961 Q60.314,33.305 61.011,34.481 Q61.707,35.657 62.788,36.784 Q63.868,37.912 65.093,38.967 Q66.317,40.023 67.398,41.102 Q68.478,42.182 69.175,43.333 Q69.871,44.485 69.872,45.733 Q69.873,48.037 68.313,49.238 Q66.754,50.438 64.018,50.44 Q62.386,50.44 61.042,50.201 Q60.322,50.105 59.65,49.962 z M55.616,45.451 Q56.672,45.787 57.824,45.978 Q58.784,46.218 60.008,46.361 Q61.232,46.505 62.48,46.504 Q64.688,46.503 64.688,44.871 Q64.687,44.247 64.015,43.6 Q63.343,42.952 62.31,42.16 Q61.278,41.369 60.101,40.409 Q58.925,39.45 57.892,38.202 Q56.86,36.955 56.187,35.395 Q55.514,33.836 55.514,31.82 Q55.513,29.564 56.328,27.835 Q57.143,26.107 58.582,24.954 Q60.022,23.801 61.966,23.201 Q63.909,22.6 66.117,22.599 Q67.269,22.598 68.421,22.718 Q69.573,22.837 70.486,22.933 Q71.542,23.076 72.55,23.22 L72.554,32.196 Q72.17,32.148 71.69,32.1 Q71.306,32.052 70.826,32.005 Q70.346,31.957 69.818,31.957 Q69.53,31.957 69.098,31.981 Q68.666,32.006 68.282,32.102 Q67.898,32.198 67.61,32.438 Q67.322,32.678 67.322,33.11 Q67.322,33.494 67.971,34.07 Q68.619,34.646 69.555,35.413 Q70.492,36.181 71.62,37.188 Q72.748,38.196 73.685,39.491 Q74.622,40.787 75.27,42.419 Q75.919,44.05 75.92,46.066 Q75.921,48.178 75.25,50.027 Q74.579,51.875 73.163,53.243 Q71.748,54.612 69.54,55.405 Q67.333,56.198 64.309,56.2 Q62.485,56.2 60.925,56.033 Q59.365,55.866 58.164,55.626 Q56.772,55.387 55.62,55.051 z M78.07,23.361 L88.918,23.356 L88.932,55.372 L78.084,55.377 z M84.131,51.535 L84.119,27.199 L82.871,27.199 L82.883,51.535 z M112.683,34.242 Q111.818,33.474 110.522,33.066 Q109.226,32.659 107.978,32.66 Q106.586,32.66 105.434,33.165 Q104.282,33.669 103.443,34.558 Q102.603,35.446 102.124,36.694 Q101.644,37.943 101.645,39.383 Q101.646,40.823 102.174,42.07 Q102.703,43.318 103.615,44.206 Q104.528,45.093 105.752,45.597 Q106.976,46.1 108.368,46.099 Q110,46.099 111.344,45.402 Q112.687,44.706 113.647,43.505 L110.767,43.506 L110.764,36.786 L123.1,36.781 L123.105,47.437 Q122.002,49.405 120.466,51.014 Q118.931,52.623 117.036,53.776 Q115.14,54.928 112.932,55.553 Q110.725,56.178 108.373,56.179 Q104.917,56.181 101.844,54.886 Q98.771,53.592 96.49,51.337 Q94.209,49.082 92.888,46.011 Q91.567,42.939 91.565,39.387 Q91.563,35.931 92.81,32.859 Q94.057,29.786 96.24,27.505 Q98.423,25.224 101.422,23.903 Q104.421,22.581 107.877,22.58 Q110.565,22.578 112.534,23.106 Q114.502,23.633 115.846,24.304 Q117.431,25.071 118.487,25.983 z M113.16,28.049 Q112.536,27.762 111.768,27.57 Q111.096,27.378 110.183,27.235 Q109.271,27.091 108.167,27.092 Q105.623,27.093 103.416,28.006 Q101.208,28.919 99.577,30.527 Q97.946,32.136 97.011,34.393 Q96.076,36.649 96.077,39.385 Q96.078,42.121 97.039,44.377 Q98,46.632 99.681,48.239 Q101.362,49.847 103.594,50.758 Q105.827,51.669 108.371,51.667 Q111.683,51.666 114.37,50.105 Q117.057,48.544 118.736,45.951 L118.733,39.663 L113.645,39.665 L113.646,40.817 L117.486,40.815 L117.488,45.615 Q116.001,47.824 113.625,49.121 Q111.25,50.418 108.37,50.419 Q106.066,50.421 104.074,49.629 Q102.081,48.838 100.569,47.375 Q99.056,45.912 98.191,43.872 Q97.326,41.832 97.325,39.384 Q97.324,36.937 98.163,34.896 Q99.002,32.856 100.465,31.391 Q101.929,29.926 103.896,29.134 Q105.864,28.341 108.168,28.34 Q109.032,28.339 109.8,28.483 Q110.568,28.626 111.144,28.77 Q111.816,28.962 112.392,29.154 z M125.734,23.34 L134.134,23.336 L142.971,35.668 L142.966,23.332 L152.998,23.327 L153.012,55.343 L144.564,55.347 L135.775,43.063 L135.78,55.351 L125.748,55.356 z M131.459,51.513 L131.448,29.337 L147.299,51.506 L148.547,51.505 L148.535,27.169 L147.287,27.17 L147.298,49.346 L131.447,27.177 L130.199,27.178 L130.211,51.514 z M165.958,23.321 L174.406,23.317 L182.763,35.602 L191.062,23.31 L199.51,23.306 L199.524,55.322 L189.3,55.327 L189.295,43.807 L182.771,53.41 L176.191,43.813 L176.196,55.333 L165.972,55.337 z M172.019,51.495 L172.009,29.463 L182.768,45.106 L193.465,29.453 L193.475,51.485 L194.723,51.484 L194.711,27.148 L193.463,27.149 L182.767,42.946 L172.007,27.159 L170.759,27.159 L170.771,51.495 z M212.374,23.3 L220.054,23.297 L232.212,55.307 L222.132,55.312 L221.075,52.432 L211.379,52.437 L210.324,55.317 L200.244,55.322 z M218.384,45.377 L216.221,39.762 L214.064,45.379 z M207.395,51.478 L208.305,49.078 L224.145,49.071 L225.059,51.47 L226.403,51.47 L217.127,27.138 L215.303,27.139 L206.051,51.479 z M216.216,28.29 L223.713,47.919 L208.737,47.926 z M238.253,39.32 Q238.252,37.016 239.043,35 Q239.834,32.984 241.273,31.495 Q242.713,30.006 244.776,29.141 Q246.84,28.277 249.384,28.275 Q250.632,28.275 251.616,28.442 Q252.6,28.61 253.272,28.85 Q254.088,29.089 254.665,29.425 L255.336,28.273 Q254.568,27.937 253.704,27.649 Q252.888,27.41 251.831,27.218 Q250.775,27.027 249.383,27.027 Q246.935,27.028 244.704,27.893 Q242.472,28.758 240.769,30.367 Q239.066,31.976 238.035,34.257 Q237.004,36.537 237.005,39.321 Q237.006,42.153 237.991,44.409 Q238.976,46.664 240.705,48.271 Q242.434,49.879 244.738,50.741 Q247.043,51.604 249.635,51.603 Q251.075,51.603 252.226,51.362 Q253.378,51.122 254.194,50.833 Q255.106,50.497 255.826,50.064 L255.153,48.913 Q254.53,49.345 253.714,49.633 Q252.994,49.922 251.986,50.138 Q250.978,50.355 249.634,50.355 Q246.994,50.356 244.882,49.493 Q242.769,48.63 241.305,47.143 Q239.84,45.656 239.047,43.64 Q238.254,41.624 238.253,39.32 z M232.205,39.323 Q232.203,35.483 233.546,32.387 Q234.888,29.29 237.191,27.081 Q239.494,24.872 242.566,23.694 Q245.637,22.517 249.093,22.515 Q251.829,22.514 253.966,23.041 Q256.102,23.568 257.638,24.24 Q259.414,25.007 260.711,25.918 L255.675,34.8 Q254.907,34.225 253.994,33.697 Q253.178,33.314 252.05,32.954 Q250.922,32.595 249.482,32.595 Q247.994,32.596 246.746,33.125 Q245.498,33.653 244.563,34.566 Q243.627,35.478 243.1,36.702 Q242.572,37.926 242.573,39.318 Q242.574,40.71 243.126,41.934 Q243.679,43.158 244.639,44.07 Q245.6,44.981 246.896,45.508 Q248.192,46.036 249.728,46.035 Q251.264,46.035 252.464,45.65 Q253.664,45.265 254.479,44.785 Q255.439,44.257 256.159,43.536 L261.203,52.414 Q259.907,53.471 258.132,54.287 Q256.596,54.96 254.436,55.537 Q252.277,56.114 249.493,56.115 Q245.749,56.117 242.58,54.894 Q239.412,53.672 237.107,51.465 Q234.802,49.258 233.504,46.163 Q232.207,43.067 232.205,39.323 z M262.39,23.277 L272.614,23.273 L272.619,34.169 L278.331,34.166 L278.326,23.27 L288.598,23.266 L288.612,55.282 L278.34,55.286 L278.335,43.43 L272.623,43.433 L272.628,55.289 L262.404,55.293 z M268.451,51.451 L268.445,39.307 L282.557,39.3 L282.563,51.444 L283.811,51.444 L283.799,27.108 L282.551,27.108 L282.556,38.148 L268.444,38.155 L268.439,27.115 L267.191,27.115 L267.203,51.451 z M291.958,23.264 L302.806,23.259 L302.82,55.275 L291.972,55.28 z M298.019,51.437 L298.007,27.101 L296.759,27.102 L296.771,51.438 z M306.166,23.258 L314.566,23.254 L323.403,35.586 L323.398,23.25 L333.43,23.245 L333.444,55.261 L324.996,55.265 L316.207,42.981 L316.212,55.269 L306.18,55.274 z M311.891,51.431 L311.88,29.255 L327.731,51.424 L328.979,51.423 L328.967,27.087 L327.719,27.088 L327.73,49.264 L311.879,27.095 L310.631,27.096 L310.643,51.431 z M336.79,23.244 L355.654,23.235 L355.658,31.635 L347.018,31.639 L347.019,35.191 L355.515,35.187 L355.519,43.155 L347.023,43.159 L347.024,46.855 L356,46.851 L356.004,55.251 L336.804,55.26 z M352.451,51.412 L352.45,50.26 L342.85,50.265 L342.845,39.753 L351.965,39.749 L351.965,38.597 L342.845,38.601 L342.84,28.233 L352.44,28.228 L352.439,27.076 L341.591,27.081 L341.603,51.417 z" fill="url(#Gradient_16)"/>
  </g>
</svg>
