<?xml version="1.0" encoding="UTF-8"?>
<!DOCTYPE svg PUBLIC "-//W3C//DTD SVG 1.1//EN" "http://www.w3.org/Graphics/SVG/1.1/DTD/svg11.dtd">
<svg version="1.1" xmlns="http://www.w3.org/2000/svg" xmlns:xlink="http://www.w3.org/1999/xlink" x="0" y="0" width="410" height="80" viewBox="0, 0, 410, 80">
  <defs>
    <radialGradient id="Gradient_2" gradientUnits="userSpaceOnUse" cx="205.13" cy="41.087" r="199.699" gradientTransform="matrix(1, -0, 0, 1, 0, 0)">
     <stop offset="0" stop-color="#1559eD"/>
      <stop offset="1" stop-color="#9b00e9"/>
    </radialGradient>
    
  </defs>
 
   <g id="Layer_3" transform="translate(-5,0), scale(0.9)">
    <path d="M6.26,59.858 L6.244,23.858 L22.256,23.851 Q25.537,23.849 27.892,26.211 Q30.246,28.572 30.247,31.835 L30.256,51.86 Q30.258,55.103 27.906,57.476 Q25.554,59.849 22.272,59.851 z M14.246,55.842 L18.258,55.84 Q19.927,55.839 21.098,54.658 Q22.27,53.476 22.269,51.863 L22.26,31.838 Q22.259,30.207 21.068,29.036 Q19.877,27.864 18.245,27.865 L14.233,27.867 z M62.242,47.833 L46.229,47.84 L46.231,51.852 Q46.232,53.465 47.404,54.646 Q48.577,55.826 50.246,55.826 L54.258,55.824 Q58.233,55.822 58.231,51.847 L62.244,51.845 Q61.31,59.833 54.26,59.836 L46.235,59.84 Q42.954,59.841 40.6,57.489 Q38.245,55.137 38.244,51.856 L38.238,39.856 Q38.237,36.537 40.598,34.183 Q42.96,31.829 46.222,31.827 L54.247,31.824 Q57.528,31.822 59.883,34.193 Q62.237,36.564 62.238,39.845 z M46.228,43.827 L54.253,43.824 L54.251,39.849 Q54.25,38.199 53.059,37.018 Q51.868,35.837 50.237,35.838 Q48.587,35.839 47.406,37.021 Q46.225,38.202 46.226,39.852 z M90.213,39.832 L86.238,39.834 Q85.712,35.822 82.449,35.823 Q80.33,35.824 79.262,36.659 Q78.194,37.494 78.194,39.144 Q78.195,40.869 84.028,43.979 Q88.773,46.527 89.495,48.205 Q90.218,49.882 90.219,51.776 Q90.22,55.114 87.868,57.468 Q85.516,59.822 82.235,59.824 L78.222,59.825 Q70.235,59.829 70.231,51.841 L74.244,51.84 Q74.714,55.833 77.996,55.832 Q80.114,55.831 81.183,54.987 Q82.251,54.142 82.25,52.492 Q82.25,50.805 76.436,47.657 Q71.672,45.128 70.949,43.441 Q70.227,41.754 70.226,39.879 Q70.224,36.523 72.586,34.169 Q74.947,31.814 78.21,31.813 L82.222,31.811 Q89.722,31.808 90.213,39.832 z M98.233,27.829 L98.231,23.816 L106.219,23.813 L106.22,27.825 z M98.247,59.816 L98.235,31.804 L106.222,31.8 L106.235,59.813 z M138.247,31.786 L138.262,63.811 Q138.263,67.073 135.892,69.437 Q133.522,71.8 130.278,71.802 L122.253,71.805 Q115.184,71.809 114.262,63.821 L118.274,63.82 Q118.557,67.795 122.251,67.793 L126.264,67.791 Q127.895,67.79 129.085,66.618 Q130.275,65.445 130.274,63.814 L130.271,55.789 Q129.804,59.802 126.26,59.804 L122.247,59.805 Q118.966,59.807 116.612,57.455 Q114.258,55.103 114.256,51.821 L114.251,39.821 Q114.249,36.503 116.611,34.149 Q118.972,31.794 122.235,31.793 z M130.262,35.802 L126.249,35.804 Q124.599,35.804 123.418,36.986 Q122.238,38.168 122.238,39.818 L122.244,51.818 Q122.245,53.43 123.417,54.611 Q124.589,55.792 126.258,55.791 Q127.927,55.79 129.098,54.608 Q130.27,53.427 130.269,51.814 z M146.247,59.794 L146.235,31.782 L154.222,31.778 L154.224,35.791 Q154.467,33.766 155.47,32.771 Q156.472,31.777 158.235,31.776 L162.247,31.775 Q165.528,31.773 167.883,34.144 Q170.237,36.515 170.238,39.796 L170.247,59.784 L162.26,59.787 L162.251,39.8 Q162.25,38.15 161.059,36.969 Q159.868,35.788 158.237,35.789 Q156.587,35.79 155.406,36.972 Q154.225,38.153 154.226,39.803 L154.235,59.791 z M189.954,59.775 L189.937,23.775 L191.756,23.774 L208.864,40.828 L225.937,23.758 L229.95,23.756 L229.966,59.756 L221.941,59.76 L221.931,37.748 L207.894,51.798 L193.956,37.76 L193.966,59.773 z M253.959,43.733 L253.957,39.758 Q253.956,38.108 252.765,36.927 Q251.574,35.747 249.943,35.747 L245.93,35.749 Q242.387,35.751 241.957,39.763 L237.945,39.765 Q238.86,31.74 245.928,31.737 L253.953,31.733 Q257.235,31.731 259.589,34.102 Q261.943,36.473 261.945,39.754 L261.954,59.742 L253.966,59.745 L253.964,55.733 Q253.497,59.746 249.954,59.747 L245.941,59.749 Q242.66,59.751 240.306,57.399 Q237.952,55.046 237.95,51.765 L237.95,51.728 Q237.949,48.446 240.31,46.092 Q242.671,43.738 245.934,43.737 z M253.961,47.745 L249.948,47.747 Q248.298,47.748 247.118,48.92 Q245.937,50.093 245.938,51.724 L245.938,51.762 Q245.938,53.374 247.111,54.555 Q248.283,55.736 249.952,55.735 Q251.621,55.734 252.792,54.552 Q253.963,53.37 253.963,51.758 z M289.92,39.742 L285.945,39.743 Q285.474,35.731 281.93,35.733 Q280.28,35.733 279.1,36.915 Q277.919,38.097 277.92,39.747 L277.925,51.747 Q277.926,53.36 279.098,54.54 Q280.271,55.721 281.939,55.72 Q285.483,55.719 285.95,51.743 L289.925,51.742 Q289.441,59.729 281.941,59.733 L277.929,59.735 Q274.647,59.736 272.293,57.384 Q269.939,55.032 269.938,51.751 L269.932,39.751 Q269.931,36.432 272.292,34.078 Q274.653,31.724 277.916,31.722 L281.928,31.72 Q289.466,31.717 289.92,39.742 z M297.954,59.725 L297.937,23.725 L305.925,23.722 L305.93,35.722 Q306.173,33.697 307.176,32.702 Q308.178,31.708 309.941,31.707 L313.953,31.706 Q317.235,31.704 319.589,34.075 Q321.943,36.446 321.945,39.727 L321.954,59.715 L313.966,59.718 L313.957,39.731 Q313.956,38.081 312.765,36.9 Q311.574,35.719 309.943,35.72 Q308.293,35.721 307.112,36.903 Q305.931,38.084 305.932,39.734 L305.941,59.722 z M329.927,27.723 L329.925,23.711 L337.912,23.707 L337.914,27.72 z M329.941,59.711 L329.928,31.698 L337.916,31.695 L337.929,59.707 z M345.954,59.704 L345.941,31.691 L353.928,31.687 L353.93,35.7 Q354.173,33.675 355.176,32.681 Q356.178,31.686 357.941,31.686 L361.953,31.684 Q365.235,31.682 367.589,34.053 Q369.943,36.424 369.945,39.705 L369.954,59.693 L361.966,59.696 L361.957,39.709 Q361.956,38.059 360.765,36.878 Q359.574,35.697 357.943,35.698 Q356.293,35.699 355.112,36.881 Q353.931,38.062 353.932,39.712 L353.941,59.7 z M401.936,47.678 L385.923,47.685 L385.925,51.698 Q385.926,53.31 387.098,54.491 Q388.271,55.672 389.939,55.671 L393.952,55.669 Q397.927,55.667 397.925,51.692 L401.938,51.691 Q401.004,59.679 393.954,59.682 L385.929,59.685 Q382.647,59.687 380.293,57.335 Q377.939,54.983 377.938,51.702 L377.932,39.702 Q377.931,36.383 380.292,34.029 Q382.653,31.674 385.916,31.673 L393.941,31.669 Q397.222,31.668 399.576,34.039 Q401.931,36.409 401.932,39.691 z M385.921,43.673 L393.946,43.669 L393.945,39.694 Q393.944,38.044 392.753,36.864 Q391.561,35.683 389.93,35.684 Q388.28,35.684 387.1,36.866 Q385.919,38.048 385.92,39.698 z" fill="url(#Gradient_2)"/>
  </g>
</svg>
