<?xml version="1.0" encoding="UTF-8"?>
<!DOCTYPE svg PUBLIC "-//W3C//DTD SVG 1.1//EN" "http://www.w3.org/Graphics/SVG/1.1/DTD/svg11.dtd">
<svg version="1.1" xmlns="http://www.w3.org/2000/svg" xmlns:xlink="http://www.w3.org/1999/xlink" x="0" y="0" width="430" height="60" viewBox="0, 0, 430, 60">
  <defs>
   
    <radialGradient id="Gradient_17" gradientUnits="userSpaceOnUse" cx="215.08" cy="45.215" r="208.406" gradientTransform="matrix(1, -0, 0, 1, 0, 0)">
     <stop offset="0" stop-color="#1559eD"/>
      <stop offset="1" stop-color="#9b00e9"/>
    </radialGradient>
  </defs>
  
  <g id="Verdana" transform="translate(-5,0), scale(0.9)">
    <path d="M39.669,41.06 Q39.671,45.935 37.446,49.791 Q35.221,53.648 31.824,55.712 Q29.27,57.26 26.223,57.871 Q23.177,58.481 19.005,58.483 L6.7,58.489 L6.684,23.59 L19.34,23.585 Q23.606,23.583 26.7,24.296 Q29.794,25.01 31.904,26.321 Q35.514,28.523 37.59,32.26 Q39.666,35.997 39.669,41.06 z M30.364,40.994 Q30.362,37.548 29.107,35.1 Q27.852,32.651 25.133,31.27 Q23.75,30.591 22.308,30.345 Q20.867,30.1 17.96,30.101 L15.687,30.102 L15.697,51.946 L17.97,51.945 Q21.181,51.943 22.681,51.65 Q24.181,51.356 25.61,50.582 Q28.071,49.174 29.218,46.818 Q30.365,44.462 30.364,40.994 z M71.992,46.858 L52.679,46.866 Q52.868,49.96 55.037,51.6 Q57.205,53.239 61.424,53.237 Q64.096,53.236 66.603,52.274 Q69.111,51.312 70.563,50.21 L71.501,50.209 L71.504,56.983 Q68.645,58.133 66.114,58.649 Q63.583,59.166 60.513,59.168 Q52.591,59.171 48.371,55.611 Q44.15,52.05 44.147,45.464 Q44.144,38.948 48.139,35.138 Q52.133,31.328 59.094,31.324 Q65.516,31.322 68.752,34.566 Q71.987,37.811 71.99,43.905 z M63.599,41.916 Q63.527,39.268 62.284,37.932 Q61.042,36.597 58.417,36.598 Q55.979,36.599 54.409,37.866 Q52.84,39.132 52.653,41.921 z M100.821,50.102 Q100.823,54.18 97.168,56.678 Q93.513,59.176 87.161,59.179 Q83.646,59.18 80.786,58.526 Q77.926,57.871 76.191,57.074 L76.188,50.137 L76.962,50.137 Q77.595,50.582 78.427,51.109 Q79.259,51.636 80.783,52.244 Q82.096,52.783 83.76,53.169 Q85.424,53.555 87.323,53.554 Q89.807,53.553 91.002,53.001 Q92.197,52.45 92.197,51.372 Q92.196,50.411 91.493,49.978 Q90.79,49.544 88.821,49.147 Q87.883,48.936 86.278,48.691 Q84.672,48.446 83.359,48.095 Q79.773,47.159 78.038,45.179 Q76.302,43.199 76.301,40.246 Q76.299,36.449 79.896,33.928 Q83.492,31.407 89.727,31.404 Q92.68,31.403 95.387,31.999 Q98.094,32.596 99.618,33.275 L99.621,39.931 L98.895,39.931 Q97.019,38.643 94.616,37.836 Q92.214,37.028 89.753,37.029 Q87.714,37.03 86.319,37.593 Q84.925,38.156 84.926,39.188 Q84.926,40.125 85.559,40.617 Q86.192,41.109 88.536,41.6 Q89.825,41.857 91.314,42.103 Q92.802,42.348 94.302,42.722 Q97.631,43.588 99.225,45.451 Q100.82,47.313 100.821,50.102 z M114.864,58.44 L106.426,58.444 L106.415,32.123 L114.852,32.119 z M115.085,28.369 L106.178,28.373 L106.176,21.975 L115.082,21.971 z M148.425,55.401 Q148.427,59.104 147.373,61.636 Q146.32,64.168 144.422,65.598 Q142.524,67.052 139.841,67.698 Q137.158,68.344 133.783,68.345 Q131.04,68.346 128.38,68.019 Q125.72,67.693 123.774,67.225 L123.771,60.639 L124.802,60.638 Q126.35,61.247 128.576,61.75 Q130.803,62.253 132.561,62.252 Q134.905,62.251 136.369,61.817 Q137.834,61.382 138.607,60.585 Q139.333,59.835 139.661,58.663 Q139.989,57.491 139.988,55.85 L139.988,55.358 Q138.465,56.601 136.613,57.328 Q134.762,58.056 132.489,58.057 Q126.958,58.059 123.956,54.732 Q120.955,51.406 120.951,44.609 Q120.95,41.351 121.863,38.983 Q122.776,36.616 124.439,34.857 Q125.985,33.216 128.247,32.301 Q130.508,31.386 132.875,31.385 Q135.008,31.384 136.754,31.887 Q138.501,32.39 139.931,33.28 L140.235,32.108 L148.415,32.104 z M139.985,50.131 L139.98,38.202 Q139.253,37.897 138.198,37.722 Q137.144,37.547 136.3,37.547 Q132.972,37.549 131.308,39.46 Q129.645,41.37 129.647,44.792 Q129.649,48.589 131.067,50.089 Q132.486,51.588 135.275,51.587 Q136.541,51.586 137.759,51.187 Q138.978,50.788 139.985,50.131 z M182.833,58.409 L174.348,58.413 L174.342,45.358 Q174.342,43.764 174.177,42.182 Q174.012,40.6 173.613,39.85 Q173.144,38.984 172.242,38.585 Q171.339,38.187 169.722,38.188 Q168.574,38.189 167.39,38.564 Q166.207,38.94 164.824,39.761 L164.833,58.417 L156.395,58.421 L156.383,32.101 L164.821,32.097 L164.822,35.003 Q167.071,33.244 169.145,32.306 Q171.219,31.367 173.75,31.366 Q178.016,31.364 180.419,33.847 Q182.823,36.331 182.825,41.276 z M244.051,58.381 L235.098,58.385 L235.088,35.018 L228.626,50.185 L222.415,50.188 L215.939,35.027 L215.95,58.394 L207.466,58.398 L207.45,23.499 L217.903,23.494 L225.762,40.999 L233.582,23.487 L244.036,23.483 z M268.423,51.503 L268.421,46.018 Q266.71,46.16 264.718,46.407 Q262.726,46.654 261.695,46.982 Q260.429,47.381 259.762,48.143 Q259.094,48.905 259.095,50.148 Q259.095,50.968 259.236,51.483 Q259.377,51.999 259.939,52.467 Q260.479,52.936 261.229,53.158 Q261.979,53.381 263.573,53.38 Q264.838,53.379 266.139,52.863 Q267.439,52.347 268.423,51.503 z M268.425,55.581 Q267.746,56.097 266.738,56.824 Q265.731,57.551 264.84,57.973 Q263.598,58.536 262.263,58.806 Q260.927,59.076 259.333,59.077 Q255.583,59.079 253.051,56.76 Q250.518,54.441 250.517,50.831 Q250.515,47.948 251.804,46.12 Q253.092,44.291 255.459,43.235 Q257.802,42.179 261.27,41.732 Q264.739,41.286 268.465,41.073 L268.465,40.932 Q268.464,38.753 266.683,37.921 Q264.901,37.09 261.432,37.092 Q259.346,37.093 256.98,37.832 Q254.613,38.571 253.582,38.97 L252.808,38.971 L252.805,32.619 Q254.141,32.267 257.153,31.785 Q260.164,31.303 263.188,31.302 Q270.383,31.299 273.583,33.512 Q276.783,35.725 276.786,40.46 L276.794,58.366 L268.426,58.37 z M298.263,59.059 Q294.817,59.061 291.969,58.242 Q289.121,57.423 287.011,55.713 Q284.924,54.003 283.775,51.402 Q282.625,48.801 282.624,45.309 Q282.622,41.629 283.851,38.957 Q285.081,36.284 287.283,34.525 Q289.415,32.86 292.204,32.086 Q294.992,31.311 297.992,31.31 Q300.688,31.308 302.961,31.893 Q305.235,32.478 307.204,33.415 L307.207,40.61 L306.012,40.611 Q305.52,40.189 304.828,39.627 Q304.136,39.065 303.128,38.526 Q302.167,38.011 301.019,37.671 Q299.87,37.332 298.347,37.333 Q294.972,37.334 293.156,39.48 Q291.341,41.625 291.342,45.305 Q291.344,49.102 293.208,51.07 Q295.072,53.037 298.494,53.036 Q300.088,53.035 301.365,52.671 Q302.642,52.307 303.486,51.815 Q304.283,51.346 304.892,50.83 Q305.501,50.314 306.016,49.822 L307.212,49.821 L307.215,57.016 Q305.223,57.955 303.055,58.506 Q300.888,59.058 298.263,59.059 z M339.231,58.338 L330.747,58.342 L330.741,45.287 Q330.74,43.693 330.575,42.111 Q330.411,40.529 330.012,39.779 Q329.543,38.912 328.64,38.514 Q327.738,38.116 326.12,38.117 Q324.972,38.118 323.789,38.493 Q322.605,38.869 321.223,39.69 L321.231,58.346 L312.794,58.35 L312.777,21.881 L321.215,21.877 L321.221,34.932 Q323.47,33.173 325.544,32.235 Q327.617,31.296 330.149,31.295 Q334.414,31.293 336.818,33.776 Q339.221,36.26 339.223,41.205 z M355.426,58.33 L346.989,58.334 L346.977,32.014 L355.414,32.01 z M355.647,28.26 L346.741,28.264 L346.738,21.866 L355.644,21.861 z M389.833,58.315 L381.348,58.319 L381.342,45.264 Q381.342,43.67 381.177,42.088 Q381.012,40.506 380.613,39.756 Q380.144,38.889 379.242,38.491 Q378.339,38.093 376.722,38.094 Q375.574,38.095 374.39,38.47 Q373.207,38.846 371.824,39.667 L371.833,58.323 L363.395,58.327 L363.383,32.006 L371.821,32.003 L371.822,34.909 Q374.071,33.15 376.145,32.212 Q378.219,31.273 380.75,31.272 Q385.016,31.27 387.419,33.753 Q389.823,36.237 389.825,41.182 z M423.507,46.698 L404.195,46.707 Q404.384,49.8 406.552,51.44 Q408.721,53.08 412.94,53.078 Q415.612,53.076 418.119,52.114 Q420.626,51.152 422.079,50.05 L423.016,50.05 L423.02,56.823 Q420.161,57.973 417.63,58.49 Q415.099,59.006 412.028,59.008 Q404.106,59.011 399.886,55.451 Q395.666,51.89 395.663,45.304 Q395.66,38.789 399.654,34.978 Q403.648,31.168 410.609,31.165 Q417.031,31.162 420.267,34.406 Q423.503,37.651 423.506,43.745 z M415.114,41.756 Q415.043,39.108 413.8,37.773 Q412.557,36.437 409.932,36.438 Q407.495,36.439 405.925,37.706 Q404.355,38.972 404.169,41.761 z" fill="url(#Gradient_17)"/>
  </g>
</svg>
