<?xml version="1.0" encoding="UTF-8"?>
<!DOCTYPE svg PUBLIC "-//W3C//DTD SVG 1.1//EN" "http://www.w3.org/Graphics/SVG/1.1/DTD/svg11.dtd">
<svg version="1.1" xmlns="http://www.w3.org/2000/svg" xmlns:xlink="http://www.w3.org/1999/xlink" x="0" y="0" width="410" height="80" viewBox="0, 0, 410, 80">
  <defs>
    <radialGradient id="Gradient_1" gradientUnits="userSpaceOnUse" cx="205.13" cy="41.087" r="199.699" gradientTransform="matrix(1, -0, 0, 1, 0, 0)">
      <stop offset="0" stop-color="#1559eD"/>
      <stop offset="1" stop-color="#9b00e9"/>
    </radialGradient>
    
    </radialGradient>
  </defs>
  
  <g id="Layer_4_Kopieren" transform="translate(-5,0), scale(0.9)">
    <path d="M34.569,25.039 Q34.812,28.841 31.807,38.377 Q28.622,48.594 24.593,55.804 Q19.723,64.376 15.691,64.378 Q13.645,64.379 11.748,62.677 Q9.852,60.975 9.851,59.159 Q9.851,58.308 10.392,57.626 Q9.418,33.166 9.655,24.369 Q8.39,22.44 8.389,21.475 Q8.389,20.113 10.013,19.091 Q11.457,18.125 13.022,18.125 Q14.466,18.124 15.429,18.918 Q23.251,16.02 25.839,16.019 Q27.223,16.018 28.547,16.642 Q30.534,17.549 32.34,19.819 Q34.388,22.428 34.569,25.039 z M26.384,23.34 Q25.782,22.659 24.819,22.66 Q22.953,22.66 17.479,26.749 Q17.12,31.006 17.122,36.17 Q17.126,43.548 17.851,51.38 Q21.037,44.057 23.742,35.997 Q26.627,27.313 26.625,24.418 Q26.625,23.624 26.384,23.34 z" fill="url(#Gradient_1)"/>
    <path d="M66.29,50.475 Q65.589,52.299 61.55,54.365 Q60.936,54.894 56.721,55.759 Q51.892,56.77 48.38,56.627 Q41.794,56.39 38.016,52.504 Q34.59,48.906 34.588,43.674 Q34.585,38.01 38.447,33.736 Q42.748,29.03 49.948,28.451 Q51.353,28.354 52.67,28.353 Q63.119,28.349 64.176,35.356 Q64.704,38.572 59.525,42.366 Q53.907,46.545 45.127,48.229 Q46.094,50.148 46.621,50.724 Q47.851,51.924 49.958,51.923 Q51.978,51.922 54.261,51.057 Q56.192,50.336 56.894,49.663 Q57.245,49.567 57.596,48.583 Q57.947,47.599 59.44,47.166 Q59.966,47.022 60.669,47.022 Q62.776,47.021 64.752,48.148 Q66.729,49.275 66.29,50.475 z M52.496,33.585 Q48.984,33.587 46.79,36.324 Q43.894,39.973 44.422,43.525 Q48.549,42.803 52.06,40.162 Q55.572,37.52 55.571,35.456 Q55.57,33.584 52.496,33.585 z" fill="url(#Gradient_1)"/>
    <path d="M97.097,49.15 Q97.098,52.51 92.637,54.888 Q88.176,57.266 82.108,57.269 Q78.271,57.271 74.165,55.305 Q70.952,53.722 68.363,51.419 Q66.131,49.404 66.398,48.876 Q67.38,47.676 72.555,47.673 Q74.697,47.672 75.947,48.008 Q78.089,48.631 78.357,49.591 Q78.625,50.695 79.25,50.982 Q81.124,52.517 82.642,52.517 Q83.802,52.516 84.827,51.676 Q85.853,50.835 85.853,49.683 Q85.852,48.963 85.406,48.244 Q84.959,47.524 80.586,46.038 Q75.32,44.264 73.089,42.921 Q69.25,40.619 69.249,37.547 Q69.247,33.947 73.173,31.233 Q77.098,28.519 83.166,28.517 Q89.413,28.514 92.716,31.056 Q95.394,33.119 94.949,35.231 Q95.93,35.807 95.931,37.151 Q95.932,38.591 93.969,39.6 Q92.006,40.609 89.954,40.609 Q86.92,40.611 84.688,38.452 Q84.063,37.876 84.062,36.916 Q84.062,36.484 84.196,35.692 Q84.329,34.9 84.329,34.564 Q84.328,33.316 82.633,33.317 Q80.045,33.318 80.046,36.054 Q80.047,38.838 83.439,40.516 Q84.778,41.188 89.241,42.434 Q93.078,43.488 94.685,44.591 Q97.095,46.27 97.097,49.15 z" fill="url(#Gradient_1)"/>
    <path d="M107.757,19.542 Q107.937,19.686 107.938,20.022 Q107.938,20.454 107.577,21.511 Q107.156,22.807 107.036,23.287 Q106.916,23.767 107.158,25.399 Q107.158,26.407 106.406,26.719 Q105.654,27.031 104.51,27.032 Q102.886,27.033 101.2,26.505 Q99.154,25.834 99.153,24.73 Q99.153,24.394 99.514,23.794 Q99.875,23.194 99.935,22.81 Q100.055,22.426 99.934,20.89 Q99.813,19.69 100.535,19.258 Q101.498,18.681 103.965,18.68 Q106.673,18.679 107.757,19.542 z M108.544,31.254 Q108.545,31.926 107.613,33.343 Q106.68,34.759 106.681,35.671 L106.687,49.783 Q106.688,50.743 107.351,52.495 Q108.013,54.246 108.014,54.918 Q108.014,55.878 107.051,56.359 Q105.547,57.127 103.802,57.128 Q101.515,57.129 100.552,55.882 Q99.287,54.346 99.284,46.714 Q99.283,44.89 99.371,41.026 Q99.46,37.162 99.459,35.386 Q99.459,34.714 99.278,33.634 Q99.097,32.554 99.097,32.074 Q99.096,30.49 100.54,29.338 Q101.141,28.857 102.766,28.857 Q104.391,28.856 106.016,29.263 Q107.641,29.671 108.093,30.198 Q108.544,30.726 108.544,31.254 z" fill="url(#Gradient_1)"/>
    <path d="M132.917,30.011 Q133.055,34.139 133.537,43.595 Q133.813,50.267 133.815,53.147 Q133.818,59.483 132.385,61.787 Q130.952,64.092 126.582,64.334 Q121.119,64.673 116.952,62.322 Q114.904,61.891 114.357,61.652 Q113.196,61.172 112.854,60.02 Q112.239,57.765 117.906,57.762 Q119.34,57.761 120.638,58.001 Q121.594,58.144 122.755,59.128 Q123.917,60.111 124.941,60.159 Q126.921,60.254 126.919,56.222 Q126.919,54.494 126.575,50.606 Q124.118,53.535 123.026,54.4 Q120.774,56.033 117.769,56.034 Q113.535,56.036 110.939,51.909 Q108.547,48.118 108.544,42.694 Q108.542,37.126 111.067,33.285 Q113.933,28.964 118.986,28.866 Q121.717,28.816 123.015,29.632 Q124.313,30.447 125.542,31.311 Q124.654,29.583 125.951,28.718 Q126.702,28.19 128.204,28.189 Q129.638,28.189 131.072,28.716 Q132.506,29.243 132.917,30.011 z M124.728,42.255 Q125,39.471 123.769,36.975 Q122.402,34.192 120.217,34.193 Q118.442,34.194 117.078,36.978 Q115.85,39.475 115.714,42.259 Q115.579,45.187 116.331,47.539 Q117.288,50.322 118.996,50.322 Q120.498,50.321 122.477,47.608 Q124.456,44.895 124.728,42.255 z" fill="url(#Gradient_1)"/>
    <path d="M175.12,52.318 Q174.96,53.374 172.794,54.119 Q170.627,54.864 167.978,54.865 Q164.045,54.867 162.6,53.38 Q163.235,38.595 161.148,38.404 Q159.142,38.213 151.362,51.657 Q151.363,53.097 151.364,54.537 Q151.284,56.265 149.8,56.985 Q148.315,57.706 146.63,57.707 Q143.74,57.708 140.449,55.838 Q139.485,55.358 139.402,48.542 Q139.484,52.718 139.475,33.038 Q139.475,32.606 139.314,31.862 Q139.153,31.118 139.153,30.782 Q139.153,29.87 139.955,29.198 Q140.918,28.333 143.005,28.333 Q145.172,28.332 147.54,29.122 Q149.908,29.913 150.39,30.633 Q150.711,31.113 150.711,31.593 Q150.711,32.073 150.07,32.937 Q149.428,33.802 149.428,34.378 L149.431,41.002 Q154.485,34.567 157.052,32.502 Q161.626,28.948 167.405,29.185 Q170.856,29.328 172.302,33.023 Q173.427,35.807 173.51,41.279 Q173.512,45.599 173.514,49.919 Q173.675,50.255 174.638,51.118 Q175.2,51.598 175.12,52.318 z" fill="url(#Gradient_1)"/>
    <path d="M235.004,61.548 Q233.621,63.372 230.973,63.374 Q228.565,63.375 225.977,61.939 Q223.629,60.669 223.328,59.454 Q223.207,59.012 223.207,58.625 Q223.207,57.741 224.019,56.635 Q224.831,55.529 224.77,54.701 L222.956,36.134 L212.615,57.58 Q212.435,58.022 212.435,58.63 Q212.435,59.072 212.586,60.011 Q212.737,60.95 212.737,61.448 Q212.738,62.719 211.655,63.382 Q210.091,64.378 207.984,64.379 Q205.878,64.38 204.163,63.358 Q202.447,62.337 202.025,60.679 Q201.904,60.182 201.904,59.795 Q201.904,59.408 202.024,58.855 Q202.144,58.303 202.144,58.026 Q202.144,57.695 202.023,57.363 L193.348,36.148 L194.2,56.151 Q194.26,56.925 194.622,58.334 Q194.984,59.743 194.984,60.406 Q194.985,62.45 191.675,63.612 Q191.254,63.723 190.652,63.723 Q188.787,63.724 186.8,62.565 Q184.513,61.295 183.85,59.251 Q183.73,58.919 183.729,58.643 Q183.729,58.09 184.451,57.399 Q185.173,56.708 185.173,56.155 L184.436,24.658 Q184.436,23.884 183.833,22.696 Q183.231,21.509 183.231,20.901 Q183.23,19.961 184.313,18.883 Q185.396,17.805 188.104,17.804 Q192.076,17.802 194.424,19.569 Q195.748,20.564 195.749,21.669 Q195.749,21.834 195.689,22.166 Q195.689,22.498 195.689,22.663 Q195.689,23.161 195.87,23.547 L207.797,50.067 L221.144,21.878 Q221.385,21.381 221.385,20.718 Q221.385,20.497 221.324,20.055 Q221.324,19.612 221.324,19.391 Q221.323,18.12 222.587,17.236 Q223.609,16.517 225.294,16.516 Q227.882,16.515 230.32,17.951 Q232.758,19.386 232.699,21.21 Q232.639,22.094 231.797,22.675 Q230.954,23.255 231.015,23.753 L233.557,56.354 Q233.618,56.907 234.521,58.26 Q235.424,59.614 235.425,60.443 Q235.425,60.995 235.004,61.548 z" fill="url(#Gradient_1)"/>
    <path d="M269.504,53.423 Q268.338,55.776 263.748,55.778 Q262.192,55.779 261.259,55.443 Q260.014,54.916 259.546,53.332 Q258.611,50.596 257.677,49.061 Q257.445,51.701 253.012,54.415 Q248.579,57.129 244.066,57.131 Q238.387,57.133 236.207,52.478 Q235.428,50.751 235.427,49.215 Q235.425,44.751 242.815,41.579 Q248.882,39.369 255.027,37.206 Q255.337,36.39 255.337,35.622 Q255.336,34.134 254.014,33.87 Q252.691,33.607 251.758,33.607 Q250.124,33.608 249.074,34.257 Q248.024,34.905 247.091,35.482 Q246.157,35.866 244.68,37.259 Q243.513,38.363 242.113,38.46 Q240.09,38.605 238.456,37.597 Q236.822,36.59 236.821,35.246 Q236.821,34.478 237.443,33.854 Q239.232,32.029 242.81,30.683 Q248.255,28.665 256.423,28.661 Q261.635,28.659 263.582,31.73 Q264.827,33.793 265.452,39.457 Q266.156,46.321 267.168,49.488 Q267.324,50.112 268.492,51.072 Q269.659,52.031 269.659,52.751 Q269.66,53.087 269.504,53.423 z M255.962,41.621 Q253.629,42.391 251.334,43.208 Q249.039,44.025 247.095,45.37 Q244.295,47.339 244.296,48.731 Q244.297,49.883 245.697,51.13 Q246.476,51.802 247.409,51.801 Q249.432,51.8 251.803,49.015 Q254.175,46.23 255.962,41.621 z" fill="url(#Gradient_1)"/>
    <path d="M295.716,47.46 Q295.641,48.516 294.29,49.621 Q292.189,51.206 291.588,52.022 Q286.86,56.632 281.829,56.634 Q275.897,56.637 272.592,52.798 Q269.662,49.296 269.659,43.968 Q269.657,37.872 273.259,33.358 Q277.236,28.364 283.543,28.362 Q288.499,28.359 291.579,31.862 Q294.134,34.837 294.135,38.341 Q294.136,39.301 293.911,40.021 Q293.386,41.653 289.631,41.655 Q286.703,41.656 285.126,40.601 Q284.375,40.073 284.374,38.153 Q284.374,37.673 284.448,36.761 Q284.448,35.801 284.448,35.369 Q284.447,33.209 283.245,33.21 Q281.969,33.21 280.544,37.939 Q279.12,42.668 279.122,46.796 Q279.124,51.596 281.376,51.594 Q284.305,51.593 285.73,48.569 Q286.331,48.136 286.405,46.84 Q286.405,45.688 287.305,45.328 Q288.206,44.967 289.933,44.967 Q292.186,44.966 293.838,45.589 Q295.791,46.308 295.716,47.46 z" fill="url(#Gradient_1)"/>
    <path d="M319.371,51.383 Q319.733,52.583 319.733,52.919 Q319.733,53.927 318.259,54.576 Q316.785,55.224 315.1,55.225 Q312.513,55.226 311.79,53.69 Q311.488,53.067 311.488,52.635 Q311.488,52.011 312.18,51.29 Q312.871,50.57 312.871,49.946 Q313.592,47.45 313.59,42.746 Q313.586,34.586 312.142,34.394 Q311.059,34.251 308.653,37.132 Q306.127,40.157 304.443,43.902 Q302.459,48.319 302.762,51.679 Q302.581,51.967 302.582,52.255 Q302.582,52.687 303.064,53.478 Q303.545,54.27 303.546,54.75 Q303.546,55.23 303.125,55.662 Q301.501,57.535 299.876,57.536 Q298.191,57.537 296.625,55.425 Q295.722,54.178 295.716,41.074 Q295.714,36.274 296.007,19.234 Q296.007,18.946 295.946,18.346 Q295.886,17.746 295.886,17.41 Q295.946,16.93 296.246,16.546 Q296.908,15.537 299.074,15.536 Q301,15.535 302.595,16.351 Q304.19,17.166 303.83,18.27 Q303.77,18.558 303.258,18.942 Q302.747,19.327 302.747,19.711 L302.754,35.167 Q306.182,29.021 312.861,28.634 Q316.472,28.44 318.641,32.951 Q320.629,37.078 320.631,43.078 Q320.633,47.686 319.371,51.383 z" fill="url(#Gradient_1)"/>
    <path d="M333.619,19.409 Q333.8,19.552 333.8,19.888 Q333.8,20.32 333.44,21.377 Q333.019,22.673 332.899,23.153 Q332.779,23.633 333.02,25.265 Q333.021,26.273 332.268,26.585 Q331.516,26.897 330.373,26.898 Q328.748,26.899 327.063,26.372 Q325.016,25.7 325.016,24.596 Q325.016,24.26 325.377,23.66 Q325.737,23.06 325.797,22.676 Q325.918,22.292 325.797,20.756 Q325.676,19.556 326.398,19.124 Q327.36,18.547 329.828,18.546 Q332.536,18.545 333.619,19.409 z M334.407,31.12 Q334.407,31.792 333.475,33.209 Q332.543,34.625 332.543,35.537 L332.55,49.649 Q332.55,50.609 333.213,52.361 Q333.876,54.112 333.876,54.784 Q333.877,55.744 332.914,56.225 Q331.41,56.994 329.665,56.994 Q327.378,56.995 326.414,55.748 Q325.15,54.212 325.146,46.58 Q325.145,44.756 325.234,40.892 Q325.322,37.028 325.322,35.252 Q325.321,34.58 325.14,33.5 Q324.959,32.42 324.959,31.94 Q324.958,30.356 326.402,29.204 Q327.004,28.724 328.629,28.723 Q330.253,28.722 331.878,29.129 Q333.504,29.537 333.955,30.064 Q334.407,30.592 334.407,31.12 z" fill="url(#Gradient_1)"/>
    <path d="M366.974,52.321 Q366.854,53.377 365.229,54.122 Q363.605,54.867 361.619,54.868 Q358.67,54.869 357.586,53.382 Q358.061,38.597 356.496,38.406 Q354.992,38.215 349.16,51.657 Q349.161,53.097 349.162,54.537 Q349.102,56.265 347.989,56.986 Q346.876,57.707 345.612,57.707 Q343.446,57.708 340.978,55.837 Q340.255,55.358 340.192,48.542 Q340.254,52.718 340.245,33.038 Q340.245,32.606 340.124,31.862 Q340.004,31.118 340.003,30.782 Q340.003,29.87 340.605,29.197 Q341.326,28.333 342.891,28.332 Q344.516,28.332 346.292,29.123 Q348.067,29.914 348.429,30.634 Q348.669,31.114 348.67,31.594 Q348.67,32.074 348.189,32.938 Q347.708,33.802 347.708,34.378 L347.711,41.002 Q351.5,34.568 353.424,32.504 Q356.853,28.95 361.186,29.188 Q363.774,29.331 364.859,33.026 Q365.702,35.81 365.765,41.282 Q365.767,45.602 365.769,49.922 Q365.89,50.258 366.612,51.122 Q367.034,51.601 366.974,52.321 z" fill="url(#Gradient_1)"/>
    <path d="M404.669,50.468 Q403.835,52.292 399.034,54.358 Q398.303,54.887 393.293,55.753 Q387.552,56.764 383.376,56.622 Q375.547,56.385 371.056,52.499 Q366.984,48.901 366.981,43.669 Q366.979,38.005 371.57,33.731 Q376.683,29.025 385.242,28.445 Q386.913,28.348 388.479,28.347 Q400.901,28.342 402.157,35.349 Q402.785,38.565 396.627,42.36 Q389.948,46.539 379.51,48.223 Q380.659,50.143 381.286,50.718 Q382.748,51.918 385.253,51.917 Q387.654,51.916 390.368,51.05 Q392.664,50.329 393.499,49.657 Q393.916,49.561 394.334,48.577 Q394.751,47.592 396.525,47.16 Q397.151,47.015 397.986,47.015 Q400.492,47.014 402.841,48.141 Q405.19,49.268 404.669,50.468 z M388.272,33.579 Q384.097,33.581 381.488,36.318 Q378.045,39.968 378.673,43.52 Q383.579,42.797 387.753,40.156 Q391.928,37.514 391.927,35.45 Q391.926,33.578 388.272,33.579 z" fill="url(#Gradient_1)"/>
  </g>
</svg>
