<svg xmlns="http://www.w3.org/2000/svg" xmlns:xlink="http://www.w3.org/1999/xlink" viewBox="0 0 1000 1000" width="100%"
    height="100%" preserveAspectRatio="xMidYMid meet">
    <style>
        rect.canvas {
            stroke-width: 1;
            stroke: #000000;
            fill: #ffffff;
            visibility: visible;
        }

        line.grid {
            stroke-width: 1;
            stroke: #ff00ff;
            visibility: hidden;
        }

        line.el {
            stroke-width: 1;
            stroke: #000000;
            visibility: hidden;
        }

        polygon.el {
            stroke-width: 1;
            stroke: #ff0000;
            fill: none;
        }
    </style>
    <defs>
        <pattern id="img1" height="100%" width="100%" patternContentUnits="objectBoundingBox" patternTransform="rotate(0)
                             skewX(0) skewY(45)
                             ">
            >
            <image x="0" y="0" height="1" width="1" preserveAspectRatio="none" href="result.svg" />
        </pattern>
        <pattern id="img2" height="100%" width="100%" patternContentUnits="objectBoundingBox" atternTransform="rotate(0)
                             skewX(0) skewY(45)
                             ">
            <image x="0" y="0" height="1" width="1" preserveAspectRatio="none" href="result.svg" />
        </pattern>
    </defs>
    <rect id="canvas" x="0.0" y="0.0" width="1000" height="1000" class="canvas"></rect>
    <g id="main">
        <line x1="500" y1="0" x2="500" y2="1000" class="grid"></line>
        <line x1="0" y1="500" x2="1000" y2="500" class="grid"></line>

        <line x1="0" y1="500" x2="500" y2="0" class="grid"></line>
        <line x1="500" y1="0" x2="1000" y2="500" class="grid"></line>

        <line x1="1000" y1="500" x2="500" y2="1000" class="grid"></line>
        <line x1="500" y1="1000" x2="0" y2="500" class="grid"></line>

        <line x1="250" y1="250" x2="250" y2="750" class="el"></line>
        <line x1="750" y1="250" x2="750" y2="750" class="el"></line>

        <polygon id="s1" points="250,250 500,0 500,1000 250,750" style="fill:url(#img1)" />
        <polygon id="s2" points="500,0 750,250 750,750 500,1000" class="el" />

    </g>
</svg>