<svg xmlns="http://www.w3.org/2000/svg" xmlns:xlink="http://www.w3.org/1999/xlink" viewBox="0 0 1000 1000" width="100%"
    height="100%" preserveAspectRatio="xMidYMid meet">
    <style>
        rect.canvas {
            stroke-width: 1;
            stroke: #000000;
            fill: #ffffff;
            visibility: visible;
        }

        line.grid {
            stroke-width: 1;
            stroke: #ff00ff;
            visibility: hidden;
        }

        line.el {
            stroke-width: 1;
            stroke: #000000;
            visibility: hidden;
        }

        polygon.el {
            stroke-width: 0.5;
            stroke: #ff0000;
            fill: none;
        }

         polygon.el2 {
            stroke-width: 1;
            stroke: #454651;
            fill: none;
            visibility: visible;
        }
    </style>
    <defs>
        <pattern id="img1" height="100%" width="100%" patternContentUnits="objectBoundingBox" patternTransform="rotate(45)
                             skewX(0) skewY(0)
                             ">
            >
            <image x="0" y="0" height="1" width="1" preserveAspectRatio="none" href="result.svg" />
        </pattern>
        <pattern id="img2" height="100%" width="100%" patternContentUnits="objectBoundingBox" patternTransform="rotate(5)
                             skewX(0) skewY(10)
                             ">
            <image x="0" y="0" height="1" width="1" preserveAspectRatio="none" href="symbol-01.svg" />
        </pattern>
        <linearGradient id="wall1" gradientTransform="rotate(90)">
                <stop offset="10%" stop-color="#c9e9e5"></stop>
                <stop offset="90%" stop-color="#454651"></stop>
            </linearGradient>
    </defs>
    <rect id="canvas" x="0.0" y="0.0" width="1000" height="1000" class="canvas"></rect>
    <g id="main" transform="scale(1) translate(0,0)">
        

        <polygon id="s1" points="0,0 500,0 500,500 0,500" class="el" transform="skewY(45)" />
        <polygon id="s2" points="0,0 500,0 500,500 0,500" class="el" transform="translate (500) skewY(45)"/>

         
<polygon id="s5" points="0,0 500,0 500,500 0,500" class="el2" transform="translate (125,125)" style="fill:url(#img2)"/>
         <polygon id="s3" points="0,0 250,250 250,750 0,500"  transform="translate(125,125)" style="fill:url(#wall1)"/>
          <polygon id="s4" points="0,0 250,250 250,750 0,500" class="el2" transform="translate(625,125)" style="fill:url(#wall1)"/>
          
         
         
         <polygon id="s6" points="0,0 500,0 500,500 0,500" class="el2" transform="translate (375,375)" style="fill:url(#wall1)"/>
          
    </g>
</svg>