<svg id="Pattern" xmlns="http://www.w3.org/2000/svg" xmlnsxlink="http://www.w3.org/1999/xlink" viewBox="0 0 600 1200"
    width="100%" height="100%" style="background-color:#c0ccf4;" preserveAspectRatio="xMidYMid meet">

    <style>
        rect.canvas {
            
            fill: #a0522d;
            visibility: visible;
        }

        line.grid {
            stroke-width: 1;
            stroke: #d2691e;
        }

        g.grid {
            visibility: hidden;
        }
         polygon.triangle {
            stroke-width: 0.01;
            stroke: #d2691e;
            fill:none;
            visibility: visible;
        }
        polygon.triangle2 {
            
            fill:#a0522d;
            visibility: visible;
        }
        polygon.triangle3 {
            
            fill:#ffdead;
            visibility: visible;
        }
        polygon.triangle4 {
            
            fill:#8b0000;
            visibility: visible;
        }
        polygon.triangle5 {
            
            fill:#fafad2;
            visibility: visible;
        }
    </style>
    <defs>
        <symbol id="pyramid" height="1" width="1" viewBox="0 0 1 1">
            <polygon points="0,0 0.5,0.5 0,1" class="triangle" transform="translate(0.05,0.05), scale(0.90)"></polygon>
            <polygon points="0,0 0.5,0.5 1,0" class="triangle" transform="translate(0.05,0.05), scale(0.90)"></polygon>
            <polygon points="0.5,0.5 1,0 1,1" class="triangle" transform="translate(0.05,0.05), scale(0.90)"></polygon>
            <polygon points="0,1 0.5,0.5 1,1" class="triangle" transform="translate(0.05,0.05), scale(0.90)"></polygon>
        </symbol>
        <symbol id="pyramid_a" height="1" width="1" viewBox="0 0 1 1">
            <polygon points="0,0 0.5,0.5 0,1" class="triangle2" transform="translate(0.05,0.05), scale(0.90)"></polygon>
            <polygon points="0,0 0.5,0.5 1,0" class="triangle4" transform="translate(0.05,0.05), scale(0.90)"></polygon>
            <polygon points="0.5,0.5 1,0 1,1" class="triangle3" transform="translate(0.05,0.05), scale(0.90)"></polygon>
            <polygon points="0,1 0.5,0.5 1,1" class="triangle5" transform="translate(0.05,0.05), scale(0.90)"></polygon>
        </symbol>
         <symbol id="pyramid_b" height="1" width="1" viewBox="0 0 1 1">
            <polygon points="0,0 0.5,0.5 0,1" class="triangle5" transform="translate(0.05,0.05), scale(0.90)"></polygon>
            <polygon points="0,0 0.5,0.5 1,0" class="triangle2" transform="translate(0.05,0.05), scale(0.90)"></polygon>
            <polygon points="0.5,0.5 1,0 1,1" class="triangle4" transform="translate(0.05,0.05), scale(0.90)"></polygon>
            <polygon points="0,1 0.5,0.5 1,1" class="triangle3" transform="translate(0.05,0.05), scale(0.90)"></polygon>
        </symbol>
         <symbol id="pyramid_c" height="1" width="1" viewBox="0 0 1 1">
            <polygon points="0,0 0.5,0.5 0,1" class="triangle4" transform="translate(0.05,0.05), scale(0.90)"></polygon>
            <polygon points="0,0 0.5,0.5 1,0" class="triangle3" transform="translate(0.05,0.05), scale(0.90)"></polygon>
            <polygon points="0.5,0.5 1,0 1,1" class="triangle2" transform="translate(0.05,0.05), scale(0.90)"></polygon>
            <polygon points="0,1 0.5,0.5 1,1" class="triangle5" transform="translate(0.05,0.05), scale(0.90)"></polygon>
        </symbol>
    </defs>
    <g id="main">
        <rect x="0" y="0" width="600" height="1200" class="canvas"></rect>
        <g id="0" transform="translate(0,0)">
            <g transform="translate(0,0), scale(200)">
                <use xlink:href="#pyramid_b"></use>
            </g>
            <g transform="translate(200,0), scale(200)">
                <use xlink:href="#pyramid_a"></use>
            </g>
            <g transform="translate(400,0), scale(200)">
                <use xlink:href="#pyramid_c"></use>
            </g>
        </g>
        <g id="1" transform="translate(0,200)">
            <g transform="translate(0,0), scale(200)">
                <use xlink:href="#pyramid_b"></use>
            </g>
            <g transform="translate(200,0), scale(200)">
                <use xlink:href="#pyramid_c"></use>
            </g>
            <g transform="translate(400,0), scale(200)">
                <use xlink:href="#pyramid_a"></use>
            </g>
        </g>
        <g id="2" transform="translate(0,400)">
            <g transform="translate(0,0), scale(200)">
                <use xlink:href="#pyramid_a"></use>
            </g>
            <g transform="translate(200,0), scale(200)">
                <use xlink:href="#pyramid_c"></use>
            </g>
            <g transform="translate(400,0), scale(200)">
                <use xlink:href="#pyramid_b"></use>
            </g>
        </g>
        <g id="3" transform="translate(0,600)">
            <g transform="translate(0,0), scale(200)">
                <use xlink:href="#pyramid_c"></use>
            </g>
            <g transform="translate(200,0), scale(200)">
                <use xlink:href="#pyramid_a"></use>
            </g>
            <g transform="translate(400,0), scale(200)">
                <use xlink:href="#pyramid_b"></use>
            </g>
        </g>
        <g id="4" transform="translate(0,800)">
            <g transform="translate(0,0), scale(200)">
                <use xlink:href="#pyramid_c"></use>
            </g>
            <g transform="translate(200,0), scale(200)">
                <use xlink:href="#pyramid_b"></use>
            </g>
            <g transform="translate(400,0), scale(200)">
                <use xlink:href="#pyramid_a"></use>
            </g>
        </g>
        <g id="5" transform="translate(0,1000)">
            <g transform="translate(0,0), scale(200)">
                <use xlink:href="#pyramid_a"></use>
            </g>
            <g transform="translate(200,0), scale(200)">
                <use xlink:href="#pyramid_b"></use>
            </g>
            <g transform="translate(400,0), scale(200)">
                <use xlink:href="#pyramid_c"></use>
            </g>
        </g>
        <g class="grid">
            <line x1="200" y1="0" x2="200" y2="1200" class="grid"></line>
            <line x1="400" y1="0" x2="400" y2="1200" class="grid"></line>
            <line x1="0" y1="200" x2="600" y2="200" class="grid"></line>
            <line x1="0" y1="400" x2="600" y2="400" class="grid"></line>
            <line x1="0" y1="600" x2="600" y2="600" class="grid"></line>
            <line x1="0" y1="800" x2="600" y2="800" class="grid"></line>
            <line x1="0" y1="1000" x2="600" y2="1000" class="grid"></line>
        </g>
    </g>
</svg>